# xmcd
# 
# Track frame offsets:
#     150
#     13047
#     29527
#     38665
#     56321
#     77327
#     107700
#     117343
#     136770
#     153273
#     204176
#     221214
#     235435
#     251922
# 
# Disc length: 3593
# 
# Revision: 2
# Processed by: cddbd v1.5.2PL0 Copyright (c) Steve Scherf et al.
# Submitted via: fre:ac v1.0.31
# 
DISCID=b50e070e
DTITLE=OLDFIELD (MIKE) - THE COLLECTION
DYEAR=2009
DGENRE=New Age
TTITLE0=IN DULCI JUBILO
TTITLE1=OMMADAWN (EXCERPT)
TTITLE2=PORTISMOUTH
TTITLE3=WILLIAM TELL OVERTURE
TTITLE4=INCANTATIONS PART FOUR (EXCERPT)
TTITLE5=GUILTY (LONG VERSION)
TTITLE6=BLUE PETER
TTITLE7=FIVE MILES OUT
TTITLE8=WONDERFUL LAND
TTITLE9=TAURUS II (EXCERPT)
TTITLE10=FAMILY MAN
TTITLE11=SHADOW ON THE WALL
TTITLE12=MOONLIGHT SHADOW
TTITLE13=FOREIGN AFFAIR
EXTD=YEAR: 2009
EXTT0=
EXTT1=
EXTT2=
EXTT3=
EXTT4=
EXTT5=
EXTT6=
EXTT7=
EXTT8=
EXTT9=
EXTT10=
EXTT11=
EXTT12=
EXTT13=
PLAYORDER=
